<svg width="74" height="74" viewBox="0 0 74 74" fill="none" xmlns="http://www.w3.org/2000/svg">
<g id="music (2) 1" clip-path="url(#clip0_0_5273)">
<g id="Group">
<path id="Vector" d="M58.3623 0H15.6377C7.00123 0 0 7.00111 0 15.6376V58.3621C0 66.9985 7.00123 74 15.6377 74H58.3623C66.9988 74 74 66.9985 74 58.3621V15.6376C74 7.00111 66.9988 0 58.3623 0Z" fill="url(#paint0_linear_0_5273)"/>
<path id="Vector_2" d="M50.32 20.72L29.6 27.6582V44.3082C28.7055 43.771 27.6833 43.4838 26.64 43.4765C23.3869 43.4765 20.72 46.1405 20.72 49.3965C20.72 52.6465 23.3869 55.3165 26.64 55.3165C29.893 55.3165 32.56 52.6465 32.56 49.3965V29.7865L47.36 24.79V41.3482C46.4655 40.811 45.4433 40.5238 44.4 40.5165C41.1469 40.5165 38.48 43.1805 38.48 46.4365C38.48 49.6865 41.1469 52.3565 44.4 52.3565C47.653 52.3565 50.32 49.6865 50.32 46.4365V20.72ZM44.4 43.4765C46.0517 43.4765 47.36 44.7818 47.36 46.4365C47.36 48.0881 46.0517 49.3965 44.4 49.3965C42.7483 49.3965 41.44 48.0881 41.44 46.4365C41.44 44.7818 42.7483 43.4765 44.4 43.4765ZM26.64 46.4365C28.2917 46.4365 29.6 47.7418 29.6 49.3965C29.6 51.0481 28.2917 52.3565 26.64 52.3565C24.9883 52.3565 23.68 51.0481 23.68 49.3965C23.68 47.7418 24.9883 46.4365 26.64 46.4365Z" fill="white"/>
</g>
</g>
<defs>
<linearGradient id="paint0_linear_0_5273" x1="9.89343" y1="5.57272" x2="68.0272" y2="68.7398" gradientUnits="userSpaceOnUse">
<stop stopColor="#24F7BC"/>
<stop offset="1" stopColor="#24C4FC"/>
</linearGradient>
<clipPath id="clip0_0_5273">
<rect width="74" height="74" fill="white"/>
</clipPath>
</defs>
</svg>
