<svg width="18" height="14" viewBox="0 0 18 14" fill="none" xmlns="http://www.w3.org/2000/svg">
<g id="Icon / Player Controls">
<path id="forward.end.fill" d="M1.81049 13.7422C2.18362 13.7422 2.48394 13.6304 2.85707 13.4242L12.1306 8.27624C12.6221 7.99263 12.9042 7.68324 13.0043 7.32228V12.8484C13.0043 13.6047 13.4229 14 14.2147 14H16.2896C17.0905 14 17.5 13.6047 17.5 12.8484V1.14303C17.5 0.360958 17.0905 0 16.2896 0H14.2147C13.4229 0 13.0043 0.395335 13.0043 1.14303V6.66053C12.9042 6.30816 12.6221 5.99018 12.1306 5.71516L2.85707 0.558625C2.48394 0.352363 2.18362 0.240638 1.81049 0.240638C1.09154 0.240638 0.5 0.756292 0.5 1.71885V12.2726C0.5 13.2351 1.09154 13.7422 1.81049 13.7422Z" fill="white"/>
</g>
</svg>
