<svg width="18" height="14" viewBox="0 0 18 14" fill="none" xmlns="http://www.w3.org/2000/svg">
<g id="Icon / Player Controls">
<path id="backward.end.fill" d="M1.71039 14H3.78533C4.57709 14 4.99572 13.6047 4.99572 12.8484V7.32228C4.96842 7.21915 4.95021 7.10743 4.95021 6.9957C4.95021 6.87538 4.96842 6.76366 4.99572 6.66053V1.14303C4.99572 0.360958 4.57709 0 3.78533 0H1.71039C0.91863 0 0.5 0.395335 0.5 1.14303V12.8484C0.5 13.6047 0.91863 14 1.71039 14ZM16.1895 13.7422C16.9085 13.7422 17.5 13.2351 17.5 12.2726V1.71885C17.5 0.756292 16.9085 0.240638 16.1895 0.240638C15.8164 0.240638 15.5161 0.352363 15.1429 0.558625L5.86938 5.71516C5.37794 5.99018 5.09582 6.30816 4.99572 6.66053V7.32228C5.09582 7.68324 5.37794 7.99263 5.86938 8.27624L15.1429 13.4242C15.5161 13.6304 15.8164 13.7422 16.1895 13.7422Z" fill="white"/>
</g>
</svg>
