<svg width="168" height="168" viewBox="0 0 168 168" fill="none" xmlns="http://www.w3.org/2000/svg">
<g id="music (3) 1" clip-path="url(#clip0_0_5310)">
<g id="Layer 2">
<g id="music">
<path id="Vector" d="M133 105V28C132.995 26.9486 132.754 25.9117 132.293 24.9665C131.833 24.0212 131.165 23.1919 130.34 22.54C129.527 21.8821 128.577 21.4149 127.559 21.1726C126.541 20.9304 125.483 20.9192 124.46 21.14L61.4601 35.14C59.9048 35.4907 58.5159 36.3619 57.523 37.6093C56.5302 38.8567 55.9929 40.4057 56.0001 42V100.38C51.2214 98.124 45.84 97.4783 40.6633 98.5398C35.4866 99.6013 30.7936 102.313 27.2884 106.267C23.7833 110.222 21.6549 115.207 21.2225 120.473C20.7902 125.74 22.0773 131.005 24.8907 135.478C27.704 139.951 31.892 143.392 36.8264 145.283C41.7607 147.175 47.1753 147.415 52.2579 145.969C57.3405 144.522 61.817 141.467 65.016 137.261C68.2149 133.054 69.9637 127.924 70.0001 122.64C70.0725 121.428 70.0725 120.212 70.0001 119V47.6L119 36.75V86.38C114.219 84.1226 108.834 83.4775 103.655 84.5413C98.4754 85.6052 93.7811 88.3207 90.2767 92.28C86.7723 96.2393 84.647 101.229 84.2201 106.499C83.7931 111.769 85.0875 117.036 87.9088 121.507C90.7301 125.979 94.9261 129.415 99.8666 131.299C104.807 133.182 110.225 133.412 115.308 131.954C120.39 130.496 124.862 127.428 128.052 123.212C131.243 118.995 132.979 113.857 133 108.57C133.067 107.381 133.067 106.189 133 105ZM45.7801 133C43.8073 132.999 41.8752 132.439 40.208 131.385C38.5408 130.33 37.2069 128.824 36.361 127.042C35.5152 125.26 35.1921 123.274 35.4294 121.316C35.6666 119.357 36.4544 117.506 37.7012 115.978C38.9481 114.449 40.603 113.305 42.4738 112.679C44.3446 112.053 46.3545 111.97 48.2704 112.441C50.1863 112.911 51.9294 113.915 53.2976 115.336C54.6658 116.758 55.6029 118.538 56.0001 120.47C56.0689 121.168 56.0689 121.872 56.0001 122.57C56.0006 125.3 54.9306 127.922 53.0198 129.872C51.109 131.822 48.5097 132.945 45.7801 133ZM108.78 119C106.787 119.016 104.83 118.463 103.139 117.408C101.448 116.353 100.093 114.838 99.2308 113.041C98.3688 111.244 98.0362 109.238 98.2719 107.259C98.5075 105.28 99.3017 103.408 100.562 101.864C101.821 100.319 103.495 99.165 105.386 98.5363C107.278 97.9076 109.309 97.8303 111.243 98.3134C113.177 98.7965 114.933 99.82 116.307 101.264C117.681 102.709 118.615 104.514 119 106.47C119.069 107.168 119.069 107.872 119 108.57C118.982 111.331 117.877 113.973 115.925 115.925C113.973 117.877 111.331 118.982 108.57 119H108.78Z" fill="white"/>
</g>
</g>
</g>
<defs>
<clipPath id="clip0_0_5310">
<rect width="168" height="168" fill="white"/>
</clipPath>
</defs>
</svg>
